<svg height="1902" width="720" xmlns="http://www.w3.org/2000/svg">
<rect height="1902" fill="#555" width="720"></rect>
<text fill="#7f7" font-family="Courier New" font-size="12" xml:space="preserve">
<tspan x="10" y="26"></tspan>
<tspan x="10" y="42">&gt; npmdoc-js-yaml@0.0.4 test /home/travis/build/npmdoc/node-npmdoc-js-yaml</tspan>
<tspan x="10" y="58">&gt; (set -e; export PORT=$(utility2 shServerPortRandom); utility2 test test.js)</tspan>
<tspan x="10" y="74"></tspan>
<tspan x="10" y="90"></tspan>
<tspan x="10" y="106">[MODE_BUILD=npmTest] - 2017-04-07T18:43:36Z - npm-testing /home/travis/build/npmdoc/node-npmdoc-\</tspan>
<tspan x="10" y="122">js-yaml</tspan>
<tspan x="10" y="138"></tspan>
<tspan x="10" y="154"></tspan>
<tspan x="10" y="170">covering $ /home/travis/.nvm/versions/node/v7.8.0/bin/node /home/travis/build/npmdoc/node-npmdoc\</tspan>
<tspan x="10" y="186">-js-yaml/test.js</tspan>
<tspan x="10" y="202">merging file:///home/travis/build/npmdoc/node-npmdoc-js-yaml/tmp/build/test-report.json to test-\</tspan>
<tspan x="10" y="218">report</tspan>
<tspan x="10" y="234">&gt; server listening on http-port 36391</tspan>
<tspan x="10" y="250">created apidoc file:///home/travis/build/npmdoc/node-npmdoc-js-yaml/tmp/build/apidoc.html</tspan>
<tspan x="10" y="266"></tspan>
<tspan x="10" y="282"></tspan>
<tspan x="10" y="298">browserTest - created electron entry-page /home/travis/build/npmdoc/node-npmdoc-js-yaml/tmp/elec\</tspan>
<tspan x="10" y="314">tron.15b49ba99420.8e61f48ee8ab5.html</tspan>
<tspan x="10" y="330"></tspan>
<tspan x="10" y="346">[node test-case 1 of 6 passed] - testCase_buildLib_default</tspan>
<tspan x="10" y="362">[node test-case 2 of 6 passed] - testCase_buildReadme_default</tspan>
<tspan x="10" y="378">[node test-case 3 of 6 passed] - testCase_buildTest_default</tspan>
<tspan x="10" y="394"></tspan>
<tspan x="10" y="410">browserTest - created electron entry-page /home/travis/build/npmdoc/node-npmdoc-js-yaml/tmp/elec\</tspan>
<tspan x="10" y="426">tron.15b49ba99690.9a4b49f23c1bb.html</tspan>
<tspan x="10" y="442"></tspan>
<tspan x="10" y="458">(node:6022) DeprecationWarning: node --debug is deprecated. Please use node --inspect instead.</tspan>
<tspan x="10" y="474">Xlib:  extension "RANDR" missing on display ":99.0".</tspan>
<tspan x="10" y="490">Xlib:  extension "RANDR" missing on display ":99.0".</tspan>
<tspan x="10" y="506">&gt; server listening on http-port 47793</tspan>
<tspan x="10" y="522">merging file:///home/travis/build/npmdoc/node-npmdoc-js-yaml/tmp/build/test-report.json to test-\</tspan>
<tspan x="10" y="538">report</tspan>
<tspan x="10" y="554">merging file:///home/travis/build/npmdoc/node-npmdoc-js-yaml/tmp/build/test-report.json to test-\</tspan>
<tspan x="10" y="570">report</tspan>
<tspan x="10" y="586">Xlib:  extension "RANDR" missing on display ":99.0".</tspan>
<tspan x="10" y="602">Xlib:  extension "RANDR" missing on display ":99.0".</tspan>
<tspan x="10" y="618">[6047:0407/184338:WARNING:audio_manager.cc(314)] Multiple instances of AudioManager detected</tspan>
<tspan x="10" y="634">[6047:0407/184338:WARNING:audio_manager.cc(275)] Multiple instances of AudioManager detected</tspan>
<tspan x="10" y="650">[6045:0407/184338:WARNING:audio_manager.cc(314)] Multiple instances of AudioManager detected</tspan>
<tspan x="10" y="666">[6045:0407/184338:WARNING:audio_manager.cc(275)] Multiple instances of AudioManager detected</tspan>
<tspan x="10" y="682">[6087:0407/184338:ERROR:sandbox_linux.cc(343)] InitializeSandbox() called with multiple threads \</tspan>
<tspan x="10" y="698">in process gpu-process. </tspan>
<tspan x="10" y="714">[6045:0407/184338:ERROR:browser_gpu_channel_host_factory.cc(131)] Failed to create channel.</tspan>
<tspan x="10" y="730">[6101:0407/184338:ERROR:sandbox_linux.cc(343)] InitializeSandbox() called with multiple threads \</tspan>
<tspan x="10" y="746">in process gpu-process. </tspan>
<tspan x="10" y="762">[6047:0407/184338:ERROR:browser_gpu_channel_host_factory.cc(131)] Failed to create channel.</tspan>
<tspan x="10" y="778"></tspan>
<tspan x="10" y="794">browserTest - opened url /home/travis/build/npmdoc/node-npmdoc-js-yaml/tmp/build/apidoc.html</tspan>
<tspan x="10" y="810"></tspan>
<tspan x="10" y="826"></tspan>
<tspan x="10" y="842">browserTest - opened url http://127.0.0.1:36391?modeTest=1</tspan>
<tspan x="10" y="858"></tspan>
<tspan x="10" y="874">[6047:0407/184339:INFO:CONSOLE(249)] "----------|-----------|-----------|-----------|-----------\</tspan>
<tspan x="10" y="890">|</tspan>
<tspan x="10" y="906">File      |   % Stmts |% Branches |   % Funcs |   % Lines |</tspan>
<tspan x="10" y="922">----------|-----------|-----------|-----------|-----------|</tspan>
<tspan x="10" y="938">----------|-----------|-----------|-----------|-----------|</tspan>
<tspan x="10" y="954">All files |       100 |       100 |       100 |       100 |</tspan>
<tspan x="10" y="970">----------|-----------|-----------|-----------|-----------|</tspan>
<tspan x="10" y="986">", source: file:///home/travis/build/npmdoc/node-npmdoc-js-yaml/tmp/electron.15b49ba99690.9a4b49\</tspan>
<tspan x="10" y="1002">f23c1bb.html (249)</tspan>
<tspan x="10" y="1018">[6047:0407/184339:INFO:CONSOLE(249)] "created coverage file:///tmp/build/coverage.html/index.htm\</tspan>
<tspan x="10" y="1034">l", source: file:///home/travis/build/npmdoc/node-npmdoc-js-yaml/tmp/electron.15b49ba99690.9a4b4\</tspan>
<tspan x="10" y="1050">9f23c1bb.html (249)</tspan>
<tspan x="10" y="1066">[node test-case 4 of 6 passed] - testCase_buildApp_default</tspan>
<tspan x="10" y="1082"></tspan>
<tspan x="10" y="1098">browserTest - exit-code 1 - /home/travis/build/npmdoc/node-npmdoc-js-yaml/tmp/build/apidoc.html</tspan>
<tspan x="10" y="1114"></tspan>
<tspan x="10" y="1130">[node test-case 5 of 6 passed] - testCase_buildApidoc_default</tspan>
<tspan x="10" y="1146"></tspan>
<tspan x="10" y="1162">browserTest - created screenCapture file:///home/travis/build/npmdoc/node-npmdoc-js-yaml/tmp/bui\</tspan>
<tspan x="10" y="1178">ld/screenCapture.%2F.png</tspan>
<tspan x="10" y="1194"></tspan>
<tspan x="10" y="1210">browserTest - created screenCapture file:///home/travis/build/npmdoc/node-npmdoc-js-yaml/tmp/bui\</tspan>
<tspan x="10" y="1226">ld/screenCapture.%2F.html</tspan>
<tspan x="10" y="1242"></tspan>
<tspan x="10" y="1258">browserTest - exit-code 0 - http://127.0.0.1:36391?modeTest=1</tspan>
<tspan x="10" y="1274"></tspan>
<tspan x="10" y="1290"></tspan>
<tspan x="10" y="1306">browserTest - merged coverage from /home/travis/build/npmdoc/node-npmdoc-js-yaml/tmp/coverage.%2\</tspan>
<tspan x="10" y="1322">F.json</tspan>
<tspan x="10" y="1338"></tspan>
<tspan x="10" y="1354"></tspan>
<tspan x="10" y="1370">browserTest - merging test-report from /home/travis/build/npmdoc/node-npmdoc-js-yaml/tmp/test-re\</tspan>
<tspan x="10" y="1386">port.%2F.json</tspan>
<tspan x="10" y="1402"></tspan>
<tspan x="10" y="1418">[node test-case 6 of 6 passed] - testCase_webpage_default</tspan>
<tspan x="10" y="1434">----------------------------|-----------|-----------|-----------|-----------|</tspan>
<tspan x="10" y="1450">File                        |   % Stmts |% Branches |   % Funcs |   % Lines |</tspan>
<tspan x="10" y="1466">----------------------------|-----------|-----------|-----------|-----------|</tspan>
<tspan x="10" y="1482">   node-npmdoc-js-yaml/     |       100 |       100 |       100 |       100 |</tspan>
<tspan x="10" y="1498">      example.js            |       100 |       100 |       100 |       100 |</tspan>
<tspan x="10" y="1514">      lib.npmdoc_js_yaml.js |       100 |       100 |       100 |       100 |</tspan>
<tspan x="10" y="1530">      test.js               |       100 |       100 |       100 |       100 |</tspan>
<tspan x="10" y="1546">----------------------------|-----------|-----------|-----------|-----------|</tspan>
<tspan x="10" y="1562">All files                   |       100 |       100 |       100 |       100 |</tspan>
<tspan x="10" y="1578">----------------------------|-----------|-----------|-----------|-----------|</tspan>
<tspan x="10" y="1594"></tspan>
<tspan x="10" y="1610">created coverage file:///home/travis/build/npmdoc/node-npmdoc-js-yaml/tmp/build/coverage.html/in\</tspan>
<tspan x="10" y="1626">dex.html</tspan>
<tspan x="10" y="1642">merging file:///home/travis/build/npmdoc/node-npmdoc-js-yaml/tmp/build/test-report.json to test-\</tspan>
<tspan x="10" y="1658">report</tspan>
<tspan x="10" y="1674"></tspan>
<tspan x="10" y="1690">-------------------------------------------------------</tspan>
<tspan x="10" y="1706">| test-report - buildNpmdoc - node - linux v7.8.0 - 2017-04-07T18:42:59.570Z</tspan>
<tspan x="10" y="1722">|   52419 ms            0 failed        6 passed      |</tspan>
<tspan x="10" y="1738">-------------------------------------------------------</tspan>
<tspan x="10" y="1754"></tspan>
<tspan x="10" y="1770">created test-report file:///home/travis/build/npmdoc/node-npmdoc-js-yaml/tmp/build/test-report.h\</tspan>
<tspan x="10" y="1786">tml</tspan>
<tspan x="10" y="1802"></tspan>
<tspan x="10" y="1818"></tspan>
<tspan x="10" y="1834">npmTest - 0 failed tests</tspan>
<tspan x="10" y="1850"></tspan>
<tspan x="10" y="1866"></tspan>
<tspan x="10" y="1882">[MODE_BUILD=npmTest] - 2017-04-07T18:43:54Z - EXIT_CODE - 0</tspan>
</text>
</svg>
